<?xml version="1.0" encoding="UTF-8"?><svg id="a" xmlns="http://www.w3.org/2000/svg" xmlns:xlink="http://www.w3.org/1999/xlink" viewBox="0 0 129.6 129.6"><defs><linearGradient id="c" x1="65.13" y1="340.45" x2="65.13" y2="319.92" gradientTransform="translate(0 424.6) scale(1 -1)" gradientUnits="userSpaceOnUse"><stop offset="0" stop-color="#000"/><stop offset=".09" stop-color="#13171a"/><stop offset=".33" stop-color="#414f58"/><stop offset=".55" stop-color="#667b89"/><stop offset=".74" stop-color="#809bad"/><stop offset=".9" stop-color="#91aec3"/><stop offset="1" stop-color="#97b6cb"/></linearGradient><linearGradient id="d" x1="76.37" y1="340.45" x2="76.37" y2="319.92" gradientTransform="translate(0 424.6) scale(1 -1)" gradientUnits="userSpaceOnUse"><stop offset="0" stop-color="#000"/><stop offset=".09" stop-color="#13171a"/><stop offset=".33" stop-color="#414f58"/><stop offset=".55" stop-color="#667b89"/><stop offset=".74" stop-color="#809bad"/><stop offset=".9" stop-color="#91aec3"/><stop offset="1" stop-color="#97b6cb"/></linearGradient><linearGradient id="e" x1="87.59" y1="338.15" x2="87.59" y2="324.33" gradientTransform="translate(0 424.6) scale(1 -1)" gradientUnits="userSpaceOnUse"><stop offset="0" stop-color="#000"/><stop offset=".09" stop-color="#13171a"/><stop offset=".33" stop-color="#414f58"/><stop offset=".55" stop-color="#667b89"/><stop offset=".74" stop-color="#809bad"/><stop offset=".9" stop-color="#91aec3"/><stop offset="1" stop-color="#97b6cb"/></linearGradient><linearGradient id="f" x1="53.92" y1="340.45" x2="53.92" y2="319.92" gradientTransform="translate(0 424.6) scale(1 -1)" gradientUnits="userSpaceOnUse"><stop offset="0" stop-color="#000"/><stop offset=".09" stop-color="#13171a"/><stop offset=".33" stop-color="#414f58"/><stop offset=".55" stop-color="#667b89"/><stop offset=".74" stop-color="#809bad"/><stop offset=".9" stop-color="#91aec3"/><stop offset="1" stop-color="#97b6cb"/></linearGradient><linearGradient id="g" x1="42.68" y1="338.15" x2="42.68" y2="324.33" gradientTransform="translate(0 424.6) scale(1 -1)" gradientUnits="userSpaceOnUse"><stop offset="0" stop-color="#000"/><stop offset=".09" stop-color="#13171a"/><stop offset=".33" stop-color="#414f58"/><stop offset=".55" stop-color="#667b89"/><stop offset=".74" stop-color="#809bad"/><stop offset=".9" stop-color="#91aec3"/><stop offset="1" stop-color="#97b6cb"/></linearGradient></defs><g id="b"><path d="m111.96,47.27v-18.15l-1.61-1c-.77-.5-19.49-11.82-45.24-11.82s-44.48,11.36-45.24,11.82l-1.61,1v18.15c-.04,1.27-.38,14.08,4.68,29.51,7.02,21.26,21.07,36.61,40.64,45.74l1.53.69,1.53-.69c19.57-9.1,33.65-24.48,40.64-45.74,5.1-15.43,4.72-28.24,4.68-29.51h0Z" style="fill:#001f4e; stroke-width:0px;"/><path d="m108.47,47.35v-16.35h0s-18.34-11.28-43.36-11.28-43.36,11.28-43.36,11.28v16.35s-2.38,50.88,43.36,72.14c45.7-21.26,43.36-72.14,43.36-72.14h0Z" style="fill:#a0cced; stroke-width:0px;"/><path d="m109.47,47.31v-16.85l-.46-.27c-.19-.12-18.84-11.44-43.9-11.44s-43.71,11.28-43.9,11.4l-.46.27v16.85c-.04.65-.42,13.55,4.57,28.74,3.03,9.13,7.37,16.65,12.93,23.64,6.95,8.79,15.85,15.7,26.44,20.61l.42.19.42-.19c10.59-4.91,19.46-11.86,26.44-20.61,5.56-7.02,9.9-14.54,12.93-23.64,4.99-15.16,4.6-28.05,4.57-28.7h0Z" style="fill:#97b6cb; stroke-width:0px;"/><path d="m107.12,47.43h0v-15.89l-2.8-1.34-1.11-.54c-6.79-3.26-20.8-8.71-38.14-8.71s-31.24,5.45-38.11,8.71l-1.11.54-2.8,1.34v15.85c0,.15-.5,13.24,4.64,28.51,6.22,18.5,17.65,31.66,33.96,40.41l.96.54,2.42,1.31,2.42-1.31.96-.54c16.31-8.75,27.74-21.91,33.96-40.41,5.22-15.12,4.8-27.94,4.76-28.47h0Z" style="fill:#fff; stroke-width:0px;"/><path d="m23.97,55.06c.65,4.57,1.8,15.08,3.76,20.84,6.22,18.5,17.65,31.66,33.96,40.41l.96.54,2.42,1.31,2.42-1.31.96-.54c16.31-8.75,27.74-21.91,33.96-40.41,2.03-6.03,3.19-16.65,3.84-21.34l-82.27.5h0Z" style="fill:#001f4e; stroke-width:0px;"/><polygon points="62 117.69 65.26 119.69 68.25 117.84 68.25 75.36 62 75.36 62 117.69" style="fill:url(#c); stroke-width:0px;"/><polygon points="73.24 115.35 79.5 111.47 79.5 75.36 73.24 75.36 73.24 115.35" style="fill:url(#d); stroke-width:0px;"/><polygon points="84.48 75.36 84.48 106.76 90.7 100.27 90.7 75.36 84.48 75.36" style="fill:url(#e); stroke-width:0px;"/><polygon points="50.79 111.32 57.05 115.2 57.05 75.36 50.79 75.36 50.79 111.32" style="fill:url(#f); stroke-width:0px;"/><polygon points="39.55 100.11 45.8 106.26 45.8 75.36 39.55 75.36 39.55 100.11" style="fill:url(#g); stroke-width:0px;"/><path d="m86.29,57.94c-11.47,11.7-30.24,11.9-41.94.42-11.7-11.47-11.9-30.24-.42-41.94,11.47-11.7,30.24-11.9,41.94-.42,11.7,11.48,11.9,30.24.42,41.94h0Z" style="fill:#001f4e; stroke-width:0px;"/><path d="m84.72,56.41c-10.63,10.82-28.01,11.01-38.83.38-10.82-10.63-11.01-28.01-.38-38.83,10.63-10.82,28.01-11.01,38.83-.38,10.82,10.59,11.01,28.01.38,38.83h0Z" style="fill:#97b6cb; stroke-width:0px;"/><path d="m83.45,55.14c-9.94,10.13-26.17,10.29-36.3.38-10.13-9.94-10.29-26.17-.38-36.3,9.9-10.13,26.17-10.29,36.3-.38,10.13,9.94,10.29,26.17.38,36.3h0Z" style="fill:#fff; stroke-width:0px;"/><path d="m82.6,54.34c-9.48,9.67-24.98,9.82-34.69.35-9.67-9.48-9.82-25.02-.35-34.69,9.48-9.67,25.02-9.82,34.69-.35,9.67,9.52,9.82,25.02.35,34.69Z" style="fill:#022150; stroke-width:0px;"/><path d="m79.19,19.26c4.22,4.57,6.26,7.64,6.26,7.64l-4.76.04-8.17-3.22-1.92-5.95,1.38-2.3s4.91,1.31,7.22,3.8h0Z" style="fill:#fff; stroke-width:0px;"/><path d="m67.83,14.54l2.76,3.22-3.61,4.53-8.6-.46-5.53-1.61,3.53-4.14s5.41-2.5,11.44-1.53h0Z" style="fill:#fff; stroke-width:0px;"/><path d="m44.15,28.13l1.96-1.53,1.42,6.37.84,9.98-4.68,2.07s-3.53-7.91.46-16.89h0Z" style="fill:#fff; stroke-width:0px;"/><path d="m43.69,45.01l6.33,2.84,5.1,7.14-1.73,1.76s-6.72-3.53-9.71-11.74h0Z" style="fill:#fff; stroke-width:0px;"/><path d="m54.86,49.19l9.44.35,8.25,2.99s-3.65,6.68-5.49,7.41c0,0-3.8.65-7.44-.57l-4.49-4.34s-1.11-3.99-.27-5.83h0Z" style="fill:#fff; stroke-width:0px;"/><path d="m81.15,53.38l-4.18-.61-9.9,7.14s8.21-.57,14.08-6.52h0Z" style="fill:#fff; stroke-width:0px;"/><path d="m87.9,37.6l-3.38,3.45-4.03,8.02.69,4.3s5.91-5.07,6.72-15.77h0Z" style="fill:#fff; stroke-width:0px;"/><polygon points="80.72 26.94 85.56 32.5 84.48 41.06 79.3 45.51 74.47 38.6 74.12 28.55 80.72 26.94" style="fill:#fff; stroke-width:0px;"/><polygon points="68.29 30.7 74.47 38.6 73.86 47.81 64.3 49.54 56.2 44.67 60.23 35.69 68.29 30.7" style="fill:#fff; stroke-width:0px;"/><polygon points="59.04 21.87 64.53 27.01 60.23 35.69 51.98 40.52 47.53 32.96 50.14 23.87 59.04 21.87" style="fill:#fff; stroke-width:0px;"/><path d="m73.09,22.1l.27.84,7.56,2.99h2.57c-.23-.31-.5-.65-.81-1.04h-2.53l-7.06-2.8h0Z" style="fill:#ccc; stroke-width:0px;"/><polygon points="57.81 19.8 55.21 19.07 54.67 19.72 58.58 20.83 66.52 21.26 69.25 17.8 68.6 17 65.99 20.26 57.81 19.8" style="fill:#ccc; stroke-width:0px;"/><path d="m46.96,41.14l-3.03,1.34c.12.46.23.84.35,1.15l3.03-1.34-.77-9.17-1.04-4.72-.04.04.73,3.3.77,9.4h0Z" style="fill:#ccc; stroke-width:0px;"/><path d="m70.17,52.72c-1.42,2.34-3.03,4.64-3.91,5.1l-.04.04h-.08c-.31.04-1.15.15-2.23.15-1.61,0-3.19-.23-4.53-.65l-.08-.04-3.3-3.22c.04.12.04.19.08.31l4.11,3.95c1.31.42,2.84.61,4.41.61,1.07,0,1.88-.12,2.19-.15.84-.46,2.76-3.19,4.3-5.83l-.92-.27h0Z" style="fill:#ccc; stroke-width:0px;"/><path d="m71.59,57.9c2.19-.69,4.84-1.88,7.25-3.84l-1.61-.23c-.12.08-.19.15-.31.23l-5.33,3.84h0Z" style="fill:#ccc; stroke-width:0px;"/><path d="m86.48,40.48l-.84.84c-1.04,3.88-2.69,6.64-4.07,8.4l.23,1.38c1.46-1.8,3.72-5.33,4.68-10.63h0Z" style="fill:#ccc; stroke-width:0px;"/><polygon points="84.48 32.85 84.02 32.35 83.18 39.37 78.84 43.05 79.5 44.01 83.53 40.56 84.48 32.85" style="fill:#ccc; stroke-width:0px;"/><polygon points="64.49 48.46 72.9 46.97 73.43 38.91 73.05 38.41 72.51 45.89 63.76 47.47 57.7 43.82 57.51 44.28 64.49 48.46" style="fill:#ccc; stroke-width:0px;"/><polygon points="51.75 38.14 52.37 39.14 59.47 35 63.26 27.21 62.61 26.59 59.04 33.84 51.75 38.14" style="fill:#ccc; stroke-width:0px;"/><rect x="14.8" y="77.74" width="100.85" height="12.13" style="fill:#001f4e; stroke-width:0px;"/><path d="m23.28,81.93h-1.65l-.19-.65h-1.23l-.23.19v.38l.19.15,2.15.35,1.04.81v1.76l-1.27,1.04h-2.65l-1.27-1.04v-1.11h1.65l.19.65h1.31l.23-.19v-.42l-.15-.15-2.11-.35-1.07-.88v-1.69l1.19-1h2.72l1.19,1-.04,1.15h0Z" style="fill:#fff; stroke-width:0px;"/><path d="m29.19,85.42c-.23.19-.46.38-.69.54h-2.53l-1.34-1.11v-4.03l1.31-1.07h2.65l1.31,1.07v4.03c-.23.19-.46.38-.69.57h0Zm-2.5-4.14l-.23.19v2.76l.23.19h1.07l.23-.19v-2.76l-.23-.19h-1.07Z" style="fill:#fff; stroke-width:0px;"/><path d="m36.32,81.93h-1.65l-.19-.65h-1.23l-.27.19v2.72l.27.19h1.23l.19-.65h1.65v1.11c-.19.19-.42.35-.61.54-.23.19-.42.35-.61.54h-2.46l-1.42-1.19v-3.88l1.38-1.15h2.57l1.19,1-.04,1.23h0Z" style="fill:#fff; stroke-width:0px;"/><path d="m42.77,81.93h-1.65l-.19-.65h-1.23l-.27.19v2.72l.27.19h1.23l.19-.65h1.65v1.11c-.19.19-.42.35-.61.54-.23.19-.42.35-.61.54h-2.5l-1.42-1.19v-3.88l1.38-1.15h2.57l1.19,1v1.23h0Z" style="fill:#fff; stroke-width:0px;"/><path d="m48.26,81.93l-.19-.65h-1.5v1h1.5v1.07h-1.5v1.07h1.5l.19-.65h1.31v2.19h-5.49v-1.34l.69-.19v-3.15l-.69-.19v-1.34h5.45v2.19h-1.27Z" style="fill:#fff; stroke-width:0px;"/><path d="m50.87,85.96v-1.34l.69-.19v-3.15l-.69-.19v-1.34h4.6l1.19,1v1.84l-.88.73.69,1.07.46.08v1.42h-1.69l-1.42-2.42h-.46v.88l.69.19v1.34l-3.19.08h0Zm2.53-3.65h1.27l.23-.19v-.65l-.23-.19h-1.27v1.04h0Z" style="fill:#fff; stroke-width:0px;"/><path d="m68.25,84.61v1.34h-3.15v-1.34l.46-.19-.15-.54h-1.34l-.15.54.42.19v1.34h-2.65v-1.34l.69-.19.92-3.15-.57-.19v-1.34h3.57l1.19,4.68.77.19h0Zm-3.91-1.8h.77l-.38-1.38-.38,1.38h0Z" style="fill:#fff; stroke-width:0px;"/><path d="m74.55,81.93h-1.65l-.19-.65h-1.23l-.27.19v2.72l.27.19h1.23l.19-.65h1.65v1.11c-.19.19-.42.35-.61.54s-.42.35-.61.54h-2.46l-1.42-1.19v-3.88l1.38-1.15h2.57l1.19,1-.04,1.23h0Z" style="fill:#fff; stroke-width:0px;"/><path d="m82.3,84.61v1.34h-3.15v-1.34l.46-.19-.15-.54h-1.34l-.15.54.42.19v1.34h-2.65v-1.34l.69-.19.92-3.15-.57-.19v-1.34h3.57l1.19,4.68.77.19h0Zm-3.91-1.8h.77l-.38-1.38-.38,1.38h0Z" style="fill:#fff; stroke-width:0px;"/><path d="m87.63,85.96h-4.26v-1.34l.69-.19v-3.15l-.69-.19v-1.34h4.3l1.53,1.31v3.61l-1.57,1.31h0Zm-1.73-1.53h1.11l.38-.31v-2.53l-.38-.31h-1.15l.04,3.15h0Z" style="fill:#fff; stroke-width:0px;"/><path d="m94.69,81.93l-.19-.65h-1.5v1h1.5v1.07h-1.5v1.07h1.5l.19-.65h1.31v2.19h-5.49v-1.34l.69-.19v-3.15l-.69-.19v-1.34h5.45v2.19h-1.27Z" style="fill:#fff; stroke-width:0px;"/><path d="m104.4,81.27v3.15l.65.19v1.34h-3.26v-1.34l.84-.19v-2.11l-1.11,1.92h-.69l-1.11-1.92v2.11l.84.19v1.34h-3.26v-1.34l.69-.19v-3.15l-.69-.19v-1.34h2.92l1.04,1.92,1.07-1.92h2.72v1.34l-.65.19h0Z" style="fill:#fff; stroke-width:0px;"/><path d="m111.54,81.27l-1.5,2v1.15l.77.19v1.34h-3.34v-1.34l.77-.19v-1.11l-1.53-2.03-.54-.19v-1.34h2.88v1.34l-.38.19.69,1.04.69-1.04-.38-.19v-1.34h2.46v1.34l-.57.19h0Z" style="fill:#fff; stroke-width:0px;"/><path d="m117.87,80.01c-.81,3.72-1.27,7.48-1.38,11.2-2.3-.38-4.72-.54-7.22-.42.15.77.35,1.53.5,2.3,5.26-.88,10.32-.42,14.77,1-.54-1.88-1.15-3.72-1.84-5.56,1.65-2.03,3.61-3.99,5.87-5.72-3.34-1.38-6.95-2.34-10.71-2.8h0Z" style="fill:#001f4e; stroke-width:0px;"/><path d="m12.46,80.05c.81,3.72,1.27,7.48,1.38,11.2,2.3-.38,4.72-.54,7.22-.42-.15.77-.35,1.53-.5,2.3-5.26-.88-10.32-.42-14.77,1,.54-1.88,1.15-3.72,1.84-5.56-1.65-2.03-3.61-3.99-5.87-5.72,3.3-1.38,6.91-2.34,10.71-2.8h0Z" style="fill:#001f4e; stroke-width:0px;"/><path d="m29.23,33.88l1.57,4.87h2.15c-.15-3.11.15-6.26.88-9.29-2.3.88-4.26,1.73-5.79,2.5l-2.5,1.19v5.6h2.07l1.61-4.87h0Z" style="fill:#cad4d8; stroke-width:0px;"/><path d="m31.8,41.79l1.57,4.87-4.14-3.03-3.68,2.65v1.19s-.04.84,0,2.34h.88c.19,0,.42.04.61.04v-.04h8.44c-1.23-2.92-2.03-5.95-2.38-9.02l-1.31,1h0Z" style="fill:#cad4d8; stroke-width:0px;"/><path d="m100.99,33.88l-1.57,4.87h-2.15c.15-3.11-.15-6.26-.88-9.29,2.3.88,4.26,1.73,5.79,2.5l2.5,1.19v5.6h-2.07l-1.61-4.87h0Z" style="fill:#cad4d8; stroke-width:0px;"/><path d="m98.38,41.79l-1.57,4.87,4.14-3.03,3.68,2.65v1.19s.04.84,0,2.34h-.88c-.19,0-.42.04-.61.04v-.04h-8.44c1.23-2.92,2.03-5.95,2.38-9.02l1.31,1h0Z" style="fill:#cad4d8; stroke-width:0px;"/><polygon id="h" points="100.99 36.03 99.87 39.45 96.3 39.45 99.18 41.52 98.07 44.93 100.99 42.82 103.86 44.93 102.75 41.52 105.63 39.45 102.06 39.45 100.99 36.03" style="fill:#001f4e; stroke-width:0px;"/><polygon id="i" points="29.23 36.03 30.34 39.45 33.91 39.45 31.03 41.52 32.1 44.93 29.23 42.82 26.35 44.93 27.46 41.52 24.58 39.45 28.15 39.45 29.23 36.03" style="fill:#001f4e; stroke-width:0px;"/><path d="m120.63,56.64v-8.33h-36.19l-.04.04v-.04H.98v8.33h2l3.88,21.45h107.91l3.88-21.45h2,0Z" style="fill:#001f4e; stroke-width:0px;"/><polygon points="125.01 69.72 122.48 56.64 122.78 56.64 122.78 48.27 111.23 48.27 111.23 56.64 111.58 56.64 109.04 69.72 107.12 69.72 107.12 78.09 126.77 78.09 126.77 69.72 125.01 69.72" style="fill:#001f4e; stroke-width:0px;"/><polygon points="11.38 54.61 12.57 54.61 10.96 63.74 9.31 54.61 10.5 54.61 10.5 50.31 3.02 50.31 3.02 54.61 4.67 54.61 8.54 76.05 13.34 76.05 17.21 54.61 18.9 54.61 18.9 50.31 11.38 50.31 11.38 54.61" style="fill:#526f9a; stroke-width:0px;"/><polygon points="19.44 54.61 20.9 54.61 20.9 71.76 19.44 71.76 19.44 76.05 27 76.05 27 71.76 25.54 71.76 25.54 54.61 27 54.61 27 50.31 19.44 50.31 19.44 54.61" style="fill:#526f9a; stroke-width:0px;"/><polygon points="34.87 71.76 33.6 71.76 33.6 54.61 34.98 54.61 34.98 50.31 27.5 50.31 27.5 54.61 28.92 54.61 28.92 71.76 27.5 71.76 27.5 76.05 39.55 76.05 39.55 68.11 34.87 68.11 34.87 71.76" style="fill:#526f9a; stroke-width:0px;"/><polygon points="46.96 71.76 45.69 71.76 45.69 54.61 47.11 54.61 47.11 50.31 39.59 50.31 39.59 54.61 41.05 54.61 41.05 71.76 39.59 71.76 39.59 76.05 51.64 76.05 51.64 68.11 46.96 68.11 46.96 71.76" style="fill:#526f9a; stroke-width:0px;"/><path d="m74.7,54.49l-1.31-4.18h-6.37v4.3h1.42v17.15h-2.61l-3.3-17.15h.77v-4.3h-7.52v4.3h.81l-3.34,17.15h-1.53v4.3h7.17v-4.3h-1.27l.61-3.11h2.76l.61,3.11h-1.46v4.3h14.39v-4.3h-1.42v-6.75l3.41,11.05h4.49v-21.45h1.38v-4.3h-7.71v4.18h0Zm-15.7,9.82l.54-2.72.54,2.72h-1.07Zm17.34-9.71v5.26l-1.61-5.26h1.61Z" style="fill:#526f9a; stroke-width:0px;"/><path d="m86.29,50.31l-2.8,3.19v19.34l2.8,3.19h6.37l2.69-3.22v-19.34l-2.69-3.22-6.37.08h0Zm4.38,21.45h-2.53v-17.15h2.53v17.15Z" style="fill:#526f9a; stroke-width:0px;"/><polygon points="104.59 54.61 105.78 54.61 104.13 63.74 102.52 54.61 103.71 54.61 103.71 50.31 96.23 50.31 96.23 54.61 97.88 54.61 101.75 76.05 106.55 76.05 110.43 54.61 112.11 54.61 112.11 50.31 104.59 50.31 104.59 54.61" style="fill:#526f9a; stroke-width:0px;"/><path d="m123.32,71.76l-3.3-17.15h.77v-4.3h-7.52v4.3h.77l-3.34,17.15h-1.53v4.3h7.17v-4.3h-1.31l.61-3.11h2.76l.61,3.11h-1.34v4.3h7.1v-4.3h-1.46Zm-6.83-7.44l.54-2.72.54,2.72h-1.07Z" style="fill:#526f9a; stroke-width:0px;"/><path d="m9.69,53.8h-1.34l2.5,13.85h.23l2.46-13.85h-1.34v-2.69h5.91v2.69h-1.53l-3.88,21.45h-3.45l-3.88-21.45h-1.53v-2.69h5.87v2.69h0Z" style="fill:#fff; stroke-width:0px;"/><path d="m20.28,72.56h1.42v-18.77h-1.42v-2.69h5.91v2.69h-1.42v18.77h1.42v2.69h-5.91v-2.69Z" style="fill:#fff; stroke-width:0px;"/><path d="m34.18,53.8h-1.38v18.77h2.88v-3.65h3.07v6.37h-10.44v-2.69h1.42v-18.77h-1.42v-2.69h5.87v2.65h0Z" style="fill:#fff; stroke-width:0px;"/><path d="m46.3,53.8h-1.38v18.77h2.88v-3.65h3.07v6.37h-10.44v-2.69h1.42v-18.77h-1.42v-2.69h5.87v2.65h0Z" style="fill:#fff; stroke-width:0px;"/><path d="m52.48,72.56h1.38l3.65-18.77h-.96v-2.69h5.91v2.69h-.92l3.65,18.77h1.31v2.69h-5.49v-2.69h1.53l-.92-4.72h-4.14l-.92,4.72h1.46v2.69h-5.53v-2.69h0Zm5.53-7.44h2.99l-1.5-7.79-1.5,7.79h0Z" style="fill:#fff; stroke-width:0px;"/><path d="m72.82,51.11l4.38,14.08v-11.4h-1.69v-2.69h6.14v2.69h-1.38v21.45h-3.07l-4.84-15.58v12.89h1.42v2.69h-5.91v-2.69h1.42v-18.77h-1.42v-2.69h4.95,0Z" style="fill:#fff; stroke-width:0px;"/><path d="m94.54,53.8v18.77l-2.26,2.69h-5.64l-2.34-2.69v-18.77l2.34-2.69h5.64l2.26,2.69h0Zm-3.07,18.77v-18.77h-4.14v18.77h4.14Z" style="fill:#fff; stroke-width:0px;"/><path d="m102.9,53.8h-1.38l2.5,13.85h.23l2.46-13.85h-1.34v-2.69h5.91v2.69h-1.53l-3.88,21.45h-3.45l-3.88-21.45h-1.53v-2.69h5.87v2.69h.04,0Z" style="fill:#fff; stroke-width:0px;"/><path d="m109.96,72.56h1.38l3.65-18.77h-.96v-2.69h5.91v2.69h-.92l3.65,18.77h1.31v2.69h-5.49v-2.69h1.53l-.92-4.72h-4.11l-.92,4.72h1.46v2.69h-5.56v-2.69h0Zm5.53-7.44h2.99l-1.5-7.79-1.5,7.79h0Z" style="fill:#fff; stroke-width:0px;"/><polygon points="9.62 74.75 7.47 62.82 9.46 62.82 10.42 68.15 11.46 68.15 12.42 62.82 14.45 62.82 12.26 74.75 9.62 74.75" style="fill:#cad4d8; stroke-width:0px;"/><polygon points="20.75 74.75 20.75 73.02 22.17 73.02 22.17 62.82 24.28 62.82 24.28 73.02 25.69 73.02 25.69 74.75 20.75 74.75" style="fill:#cad4d8; stroke-width:0px;"/><polygon points="28.77 74.75 28.77 73.02 30.22 73.02 30.22 62.82 32.29 62.82 32.29 73.02 36.13 73.02 36.13 69.38 38.24 69.38 38.24 74.75 28.77 74.75" style="fill:#cad4d8; stroke-width:0px;"/><polygon points="40.89 74.75 40.89 73.02 42.31 73.02 42.31 62.82 44.42 62.82 44.42 73.02 48.26 73.02 48.26 69.38 50.37 69.38 50.37 74.75 40.89 74.75" style="fill:#cad4d8; stroke-width:0px;"/><polygon points="61.46 74.75 61.46 73.02 63.07 73.02 61.96 67.35 57.09 67.35 55.97 73.02 57.55 73.02 57.55 74.75 52.94 74.75 52.94 73.02 54.28 73.02 56.28 62.82 57.97 62.82 57.43 65.58 61.61 65.58 61.08 62.82 62.8 62.82 64.8 73.02 65.99 73.02 65.99 74.75 61.46 74.75" style="fill:#cad4d8; stroke-width:0px;"/><polygon points="68.33 74.75 68.33 73.02 69.75 73.02 69.75 62.82 71.86 62.82 71.86 73.02 73.28 73.02 73.28 74.75 68.33 74.75" style="fill:#cad4d8; stroke-width:0px;"/><polygon points="77.5 74.75 73.82 62.82 75.93 62.82 76.73 65.39 77.65 65.27 77.65 62.82 79.77 62.82 79.77 74.75 77.5 74.75" style="fill:#cad4d8; stroke-width:0px;"/><polygon points="86.86 74.75 84.79 72.37 84.79 62.82 86.86 62.82 86.86 73.02 91.97 73.02 91.97 62.82 94.08 62.82 94.08 72.37 92.08 74.75 86.86 74.75" style="fill:#cad4d8; stroke-width:0px;"/><polygon points="102.83 74.75 100.68 62.82 102.67 62.82 103.63 68.15 104.67 68.15 105.63 62.82 107.62 62.82 105.47 74.75 102.83 74.75" style="fill:#cad4d8; stroke-width:0px;"/><polygon points="118.94 74.75 118.94 73.02 120.6 73.02 119.44 67.35 114.57 67.35 113.5 73.02 115.03 73.02 115.03 74.75 110.43 74.75 110.43 73.02 111.77 73.02 113.76 62.82 115.45 62.82 114.91 65.58 119.1 65.58 118.56 62.82 120.29 62.82 122.28 73.02 123.47 73.02 123.47 74.75 118.94 74.75" style="fill:#cad4d8; stroke-width:0px;"/></g></svg>